<svg id="Capa_1" data-name="Capa 1" xmlns="http://www.w3.org/2000/svg" viewBox="0 0 140.5 119.69">
  <defs>
    <style>
      .cls-1 {
        fill: #66aa5c;
      }

      .cls-1, .cls-2 {
        fill-rule: evenodd;
      }

      .cls-2 {
        fill: #345398;
      }
    </style>
  </defs>
  <title>uv</title>
  <g>
    <g>
      <path class="cls-1" d="M72.66,97.42,88.77,60.29c.45-1,1.13-2.6,2.56-3.25-3.19,0-6.52-.08-9.71-.08-.8,0-1.86,0-2.82,2.14L70.37,78.53,61.94,59.1C61.09,57.21,60.1,57,59.13,57c-3.19,0-6.52.07-9.72.08A5.77,5.77,0,0,1,52,60.29l16.1,37.13c.49,1,1.09,2.77,2.29,2.77S72.2,98.41,72.66,97.42Z"/>
      <path class="cls-2" d="M78.32,57C79,55.89,81.4,47,89.5,47A10.65,10.65,0,0,1,96.17,66.2c-2.11,1.53-3,1.29-2.85,1.9.15.78,2.94-.12,3.38-.25a18.09,18.09,0,1,0-21.17-26A42.07,42.07,0,0,0,70.37,0a42.14,42.14,0,0,0-5.16,41.85,18.08,18.08,0,0,0-33.94,8.68A18.22,18.22,0,0,0,44.05,67.85c.44.13,3.2,1,3.38.25.13-.6-1-.52-2.86-1.9A10.65,10.65,0,0,1,50.9,47C59.35,47,61.74,55.81,62.42,57l8,18.32Z"/>
      <path class="cls-2" d="M73.83,97.92c-.48,1.1-1.18,2.68-2.26,3.25,2-.14,8.52-1.47,12.77-5.56A17.6,17.6,0,0,0,90,83l.93-23.51c-.56,0-.79.9-2,3.74Z"/>
      <path class="cls-2" d="M51.88,63.25c-1.23-2.84-1.47-3.75-2-3.74L50.78,83a17.64,17.64,0,0,0,5.63,12.59c4.26,4.09,10.8,5.42,12.77,5.56-1.08-.57-1.78-2.15-2.26-3.25Z"/>
    </g>
    <g>
      <path d="M9.44,115.11c0,2-1.23,3.39-3.72,3.39a3.19,3.19,0,0,1-3.48-3.27V110h1.2V115c0,1,.12,1.34.51,1.72a2.4,2.4,0,0,0,1.8.71,2.73,2.73,0,0,0,2-.68,2.41,2.41,0,0,0,.52-1.82V110H9.44Z"/>
      <path d="M12.72,113.27h0a2.15,2.15,0,0,1,1.64-.83c1,0,1.88.71,1.88,2.22v3.39H15.17v-3.4c0-.81-.42-1.34-1.08-1.34a1.78,1.78,0,0,0-1.37.8v3.94H11.63v-5.5h1.09Z"/>
      <path d="M19,111.53a.65.65,0,1,1,0-1.3.66.66,0,0,1,.65.65A.66.66,0,0,1,19,111.53Zm.54,6.52H18.45v-5.5h1.09Z"/>
      <path d="M21.05,112.55h1.19l1.49,3.38,1.44-3.38h1.17l-2.43,5.61h-.37Z"/>
      <path d="M32.27,117.51a3.58,3.58,0,0,1-2.19.65,2.71,2.71,0,0,1-2.67-2.93A2.56,2.56,0,0,1,30,112.44c1.46,0,2.39,1,2.39,3H28.5a1.72,1.72,0,0,0,1.85,1.65,3.53,3.53,0,0,0,1.92-.66Zm-1-2.77A1.26,1.26,0,0,0,30,113.38a1.43,1.43,0,0,0-1.48,1.36Z"/>
      <path d="M35.59,112.55v1.26h0c.55-1,1.07-1.37,1.59-1.37a1.91,1.91,0,0,1,1.31.64l-.58.94a1.8,1.8,0,0,0-1-.54,1.53,1.53,0,0,0-1.34,1.69v2.88H34.5v-5.5Z"/>
      <path d="M43.05,114a3.13,3.13,0,0,0-1.6-.57c-.44,0-.72.2-.72.5s.37.54,1.33,1.1,1.24,1,1.24,1.55a1.65,1.65,0,0,1-1.81,1.61,3.77,3.77,0,0,1-1.91-.5v-1.18a3.54,3.54,0,0,0,1.8.73c.44,0,.81-.24.81-.63,0-.76-2.58-1.16-2.58-2.64,0-.94.71-1.5,1.82-1.5a3.52,3.52,0,0,1,1.62.45Z"/>
      <path d="M45.9,111.53a.66.66,0,0,1-.65-.65.66.66,0,0,1,.65-.65.65.65,0,1,1,0,1.3Zm.54,6.52H45.35v-5.5h1.09Z"/>
      <path d="M53.29,118.05H51a2.59,2.59,0,0,1-2.67-2.88A2.63,2.63,0,0,1,51,112.44a3.19,3.19,0,0,1,1.15.22v-3h1.1Zm-1.1-4.42a2.41,2.41,0,0,0-1-.21,1.74,1.74,0,0,0-1.77,1.91c0,1,.42,1.8,1.68,1.8h1.1Z"/>
      <path d="M60,117.74a1.72,1.72,0,0,1-1,.42c-.48,0-.74-.17-.84-.56a2.34,2.34,0,0,1-1.48.56,1.32,1.32,0,0,1-1.35-1.34c0-1.09,1-1.43,1.88-1.74l1-.35v-.29c0-.69-.33-1-1-1a2.27,2.27,0,0,0-1.74.91v-1.19a2.27,2.27,0,0,1,1.83-.75,1.76,1.76,0,0,1,2,1.81v2.84c0,.2.07.28.21.28a1.24,1.24,0,0,0,.57-.3Zm-1.87-2.41c-.94.32-1.74.64-1.74,1.29a.75.75,0,0,0,.78.77,1.43,1.43,0,0,0,1-.45Z"/>
      <path d="M66.17,118.05H63.85a2.59,2.59,0,0,1-2.67-2.88,2.63,2.63,0,0,1,2.74-2.73,3.19,3.19,0,0,1,1.15.22v-3h1.1Zm-1.1-4.42a2.44,2.44,0,0,0-1-.21,1.74,1.74,0,0,0-1.77,1.91c0,1,.42,1.8,1.68,1.8h1.1Z"/>
      <path d="M75.14,118.24h-.25l-3.62-8.44h1.2L75,115.68l2.5-5.88h1.19Z"/>
      <path d="M83.72,117.51a3.59,3.59,0,0,1-2.2.65,2.72,2.72,0,0,1-2.67-2.93,2.56,2.56,0,0,1,2.58-2.79c1.46,0,2.39,1,2.39,3H79.94a1.73,1.73,0,0,0,1.86,1.65,3.55,3.55,0,0,0,1.92-.66Zm-1-2.77a1.27,1.27,0,0,0-1.29-1.36A1.42,1.42,0,0,0,80,114.74Z"/>
      <path d="M86.93,112.55v1.26h0c.55-1,1.08-1.37,1.59-1.37a1.91,1.91,0,0,1,1.31.64l-.57.94a1.79,1.79,0,0,0-1-.54,1.53,1.53,0,0,0-1.34,1.69v2.88H85.84v-5.5Z"/>
      <path d="M95.66,117.74a1.72,1.72,0,0,1-1,.42c-.48,0-.74-.17-.84-.56a2.36,2.36,0,0,1-1.48.56,1.32,1.32,0,0,1-1.35-1.34c0-1.09,1-1.43,1.88-1.74l1-.35v-.29c0-.69-.34-1-1-1a2.27,2.27,0,0,0-1.74.91v-1.19a2.27,2.27,0,0,1,1.83-.75,1.76,1.76,0,0,1,2,1.81v2.84c0,.2.07.28.2.28a1.3,1.3,0,0,0,.58-.3Zm-1.87-2.41c-.94.32-1.75.64-1.75,1.29a.76.76,0,0,0,.79.77,1.43,1.43,0,0,0,1-.45Z"/>
      <path d="M101.28,114a2.51,2.51,0,0,0-1.51-.54,1.69,1.69,0,0,0-1.69,1.86,1.72,1.72,0,0,0,1.87,1.83,3.61,3.61,0,0,0,1.46-.37v1.08a4.55,4.55,0,0,1-1.64.32,2.87,2.87,0,0,1-.08-5.73,3.59,3.59,0,0,1,1.59.38Z"/>
      <path d="M104.54,112.55v1.26h0c.55-1,1.08-1.37,1.59-1.37a1.91,1.91,0,0,1,1.31.64l-.57.94a1.79,1.79,0,0,0-1-.54,1.53,1.53,0,0,0-1.34,1.69v2.88h-1.09v-5.5Z"/>
      <path d="M112.35,118.05v-.7a2.41,2.41,0,0,1-1.63.81c-1.12,0-1.9-.79-1.9-2.19v-3.42h1.09V116c0,.78.38,1.22,1.13,1.22a1.62,1.62,0,0,0,1.31-.78v-3.93h1.09v5.5Z"/>
      <path d="M117,117.07H120v1h-4.83l2.92-4.52h-2.79v-1H120Z"/>
      <path d="M126.2,117.74a1.75,1.75,0,0,1-1.06.43.73.73,0,0,1-.83-.57,2.38,2.38,0,0,1-1.48.57,1.33,1.33,0,0,1-1.35-1.35c0-1.09,1-1.42,1.87-1.74l1-.35v-.29c0-.69-.33-1-1-1a2.27,2.27,0,0,0-1.74.91v-1.19a2.27,2.27,0,0,1,1.83-.75,1.76,1.76,0,0,1,2,1.82v2.83c0,.21.08.28.21.28a1.3,1.3,0,0,0,.58-.3Zm-1.88-2.41c-.93.32-1.74.64-1.74,1.29a.75.75,0,0,0,.79.77,1.39,1.39,0,0,0,.95-.45Z"/>
      <path d="M128.94,113.27h0a2.12,2.12,0,0,1,1.64-.83c1,0,1.87.71,1.87,2.22v3.39h-1.09v-3.4c0-.81-.41-1.34-1.08-1.34a1.81,1.81,0,0,0-1.37.8v3.94h-1.09v-5.5h1.09Z"/>
      <path d="M139,117.74a1.75,1.75,0,0,1-1.05.43c-.48,0-.74-.18-.84-.57a2.36,2.36,0,0,1-1.48.57,1.33,1.33,0,0,1-1.35-1.35c0-1.09,1-1.42,1.88-1.74l1-.35v-.29c0-.69-.33-1-1-1a2.27,2.27,0,0,0-1.74.91v-1.19a2.27,2.27,0,0,1,1.83-.75,1.77,1.77,0,0,1,2,1.82v2.83c0,.21.07.28.21.28a1.24,1.24,0,0,0,.57-.3Zm-1.87-2.41c-.93.32-1.74.64-1.74,1.29a.75.75,0,0,0,.78.77,1.43,1.43,0,0,0,1-.45Z"/>
    </g>
  </g>
</svg>
